<svg xmlns="http://www.w3.org/2000/svg" viewBox="0 0 32 32" role="img" aria-label="Panko Studio">
  <rect width="32" height="32" fill="#FFFFFF"/>
  <g transform="translate(7.9757, 19.7361) scale(0.025678, -0.025678)">
    <path fill="#1A1A1A" d="M334 -10Q284.5 -10 243.5 9.0Q202.5 28 176.75 61.5Q151 95 147 138V343Q151 386 177.0 420.75Q203 455.5 243.94927536231884 475.75Q284.8985507246377 496 334 496Q403 496 456.5 463.0Q510 430 540.5 372.75Q571 315.5 571 242.5Q571 170 540.5 113.0Q510 56 456.5 23.0Q403 -10 334 -10ZM54 -205V486H207V361.2309417040359L181.5 243L204.5 125V-205ZM306.28365384615387 128Q338.6875 128 363.34375 142.75Q388 157.5 402.0 183.53424657534248Q416 209.56849315068493 416 243.18493150684932Q416 277 402.0 302.75Q388 328.5 363.46601941747576 343.25Q338.93203883495147 358 306.9660194174757 358Q275 358 250.2536231884058 343.40934065934067Q225.5072463768116 328.81868131868134 211.7536231884058 302.9230769230769Q198 277.0274725274725 198 243.06593406593407Q198 209.5 211.5 183.5Q225 157.5 249.75 142.75Q274.5 128 306.28365384615387 128Z"/>
  </g>
  <circle cx="21.5" cy="9.5" r="2.25" fill="#D4537E"/>
</svg>
