<svg xmlns="http://www.w3.org/2000/svg" viewBox="0 0 6602 2180" role="img" aria-label="panko studio">
  <g transform="translate(320, 1460) scale(1, -1)">
    <g transform="translate(0.0, 0)"><path fill="#0F172A" d="M334 -10Q284.5 -10 243.5 9.0Q202.5 28 176.75 61.5Q151 95 147 138V343Q151 386 177.0 420.75Q203 455.5 243.94927536231884 475.75Q284.8985507246377 496 334 496Q403 496 456.5 463.0Q510 430 540.5 372.75Q571 315.5 571 242.5Q571 170 540.5 113.0Q510 56 456.5 23.0Q403 -10 334 -10ZM54 -205V486H207V361.2309417040359L181.5 243L204.5 125V-205ZM306.28365384615387 128Q338.6875 128 363.34375 142.75Q388 157.5 402.0 183.53424657534248Q416 209.56849315068493 416 243.18493150684932Q416 277 402.0 302.75Q388 328.5 363.46601941747576 343.25Q338.93203883495147 358 306.9660194174757 358Q275 358 250.2536231884058 343.40934065934067Q225.5072463768116 328.81868131868134 211.7536231884058 302.9230769230769Q198 277.0274725274725 198 243.06593406593407Q198 209.5 211.5 183.5Q225 157.5 249.75 142.75Q274.5 128 306.28365384615387 128Z"/></g>
    <g transform="translate(575.0, 0)"><path fill="#0F172A" d="M257 -10Q190 -10 137.25 23.0Q84.5 56 54.25 113.0Q24 170 24 242.5Q24 315.5 54.25 372.75Q84.5 430 137.25 463.0Q190 496 257 496Q306 496 345.5 477.0Q385 458 409.75 424.5Q434.5 391 438 348V138Q434.5 95 410.0 61.5Q385.5 28 345.75 9.0Q306 -10 257 -10ZM288 128Q337 128 367.0 160.25Q397 192.5 397 243Q397 277 383.5 302.75Q370 328.5 345.5 343.25Q321 358 288.5 358Q256.5 358 232.0 343.25Q207.5 328.5 193.25 302.5Q179 276.5 179 243Q179 209.5 193.0 183.5Q207 157.5 231.75 142.75Q256.5 128 288 128ZM390.5 0V130.5L413.5 249L390.5 366.5V486H541V0Z"/></g>
    <g transform="translate(1150.0, 0)"><path fill="#0F172A" d="M375 0V276.5Q375 315 351.5 338.25Q328 361.5 291.6224489795918 361.5Q266.8724489795918 361.5 247.6862244897959 351.0Q228.5 340.5 217.75 321.25Q207 302 207 276.5L147.5 305.5Q147.5 363 172.75 405.75Q198 448.5 242.44796954314722 472.25Q286.89593908629445 496 343.1979695431472 496Q396.5 496 438.25 470.5Q480 445 504.0 403.0Q528 361 528 311V0ZM54 0V486H207V0Z"/></g>
    <g transform="translate(1702.0, 0)"><path fill="#0F172A" d="M365 0 195 252 364 486H535L331 222.5L336 286L545 0ZM54 0V726H207V0Z"/></g>
    <g transform="translate(2228.0, 0)"><path fill="#0F172A" d="M288 -11Q212.5 -11 152.25 22.5Q92 56 57.0 114.0Q22 172 22 244Q22 316 56.75 373.0Q91.5 430 151.75 463.5Q212 497 287.5 497Q363.5 497 423.5 463.75Q483.5 430.5 518.5 373.25Q553.5 316 553.5 244Q553.5 172 518.75 114.0Q484 56 424.0 22.5Q364 -11 288 -11ZM287.5 128Q320.5 128 345.5 142.5Q370.5 157 384.25 183.25Q398 209.5 398 243.5Q398 277.5 383.75 303.25Q369.5 329 345.0 343.5Q320.5 358 287.5 358Q255.5 358 230.5 343.25Q205.5 328.5 191.5 302.75Q177.5 277 177.5 243Q177.5 209.5 191.5 183.25Q205.5 157 230.5 142.5Q255.5 128 287.5 128Z"/></g>
    <g transform="translate(2784.0, 0)"><path fill="#0F172A" d=""/></g>
    <g transform="translate(2954.0, 0)"><path fill="#0F172A" d="M230.5 -12.5Q187.5 -12.5 146.0 -1.25Q104.5 10 69.25 30.25Q34 50.5 9 78L95.5 166Q120 139.5 153.0 125.25Q186 111 225 111Q252 111 266.25 118.75Q280.5 126.5 280.5 141Q280.5 159 263.25 168.5Q246 178 219.0 185.25Q192 192.5 162.0 201.75Q132 211 104.75 227.0Q77.5 243 60.5 271.25Q43.5 299.5 43.5 344Q43.5 390.5 67.5 425.25Q91.5 460 135.5 479.75Q179.5 499.5 239 499.5Q300.5 499.5 353.25 478.25Q406 457 439 414.5L352 326.5Q329 353.5 300.5 364.75Q272 376 244.5 376Q218.5 376 205.75 368.25Q193 360.5 193 347Q193 331.5 210.0 322.5Q227 313.5 254.0 306.5Q281 299.5 310.75 289.75Q340.5 280 367.5 262.75Q394.5 245.5 411.5 217.0Q428.5 188.5 428.5 143Q428.5 71.5 375.0 29.5Q321.5 -12.5 230.5 -12.5Z"/></g>
    <g transform="translate(3392.0, 0)"><path fill="#0F172A" d="M123 0V687H276V0ZM13 356V486H386V356Z"/></g>
    <g transform="translate(3771.0, 0)"><path fill="#0F172A" d="M269.5 -11Q203.19784172661872 -11 151.59892086330936 16.5Q100 44 70.75 92.67303102625299Q41.5 141.34606205250597 41.5 204.39251411607194V486H194.5V206Q194.5 180.92285714285714 203.4375 162.8042857142857Q212.375 144.68571428571428 229.4278846153846 134.84285714285716Q246.48076923076923 125 269.66379310344826 125Q304 125 324.0 146.53Q344 168.06 344 206V486H497V204.5Q497 140.5 468.0 92.0Q439 43.5 387.7841726618705 16.25Q336.568345323741 -11 269.5 -11Z"/></g>
    <g transform="translate(4290.0, 0)"><path fill="#0F172A" d="M261 -10Q192 -10 138.52607361963192 22.986842105263158Q85.0521472392638 55.973684210526315 54.5260736196319 112.98684210526315Q24 170 24 242.60569105691056Q24 315.7276422764228 54.5 372.8638211382114Q85 430 138.40384615384616 463.0Q191.80769230769232 496 261 496Q310.5 496 351.25 477.0Q392 458 418.25 424.5Q444.5 391 448 348V143Q444.5 100 418.5 65.25Q392.5 30.5 351.5 10.25Q310.5 -10 261 -10ZM288 128Q321 128 345.1930147058823 142.58221476510067Q369.3860294117647 157.16442953020135 383.1930147058823 183.08221476510067Q397 209 397 243Q397 277.1933962264151 383.3949275362319 302.79952830188677Q369.78985507246375 328.40566037735846 345.3949275362319 343.20283018867923Q321 358 288.75 358Q256.5 358 232.0387323943662 343.15876777251185Q207.57746478873239 328.3175355450237 193.2887323943662 302.38388625592415Q179 276.45023696682466 179 243Q179 209.5 192.95935960591135 183.51999999999998Q206.91871921182266 157.54 231.82758620689657 142.76999999999998Q256.73645320197045 128 288 128ZM541 0H390.5V130.5L413.5 249L388 366.5V726H541Z"/></g>
    <g transform="translate(4865.0, 0)"><path fill="#0F172A" d="M54 0V486H207V0ZM130.5 553Q95 553 71.5 577.25Q48 601.5 48 637Q48 672.5 71.5 696.75Q95 721 130.5 721Q167 721 190.0 696.75Q213 672.5 213 637Q213 601.5 190.0 577.25Q167 553 130.5 553Z"/></g>
    <g transform="translate(5106.0, 0)"><path fill="#0F172A" d="M288 -11Q212.5 -11 152.25 22.5Q92 56 57.0 114.0Q22 172 22 244Q22 316 56.75 373.0Q91.5 430 151.75 463.5Q212 497 287.5 497Q363.5 497 423.5 463.75Q483.5 430.5 518.5 373.25Q553.5 316 553.5 244Q553.5 172 518.75 114.0Q484 56 424.0 22.5Q364 -11 288 -11ZM287.5 128Q320.5 128 345.5 142.5Q370.5 157 384.25 183.25Q398 209.5 398 243.5Q398 277.5 383.75 303.25Q369.5 329 345.0 343.5Q320.5 358 287.5 358Q255.5 358 230.5 343.25Q205.5 328.5 191.5 302.75Q177.5 277 177.5 243Q177.5 209.5 191.5 183.25Q205.5 157 230.5 142.5Q255.5 128 287.5 128Z"/></g>
    <g transform="translate(5662.0, 0)"><path fill="#0081A7" d="M150 -11Q110.5 -11 84.75 15.75Q59 42.5 59 81Q59 120.5875 84.75 147.04375Q110.5 173.5 150 173.5Q189.5 173.5 215.0 147.04375Q240.5 120.5875 240.5 81Q240.5 42.5 215.0 15.75Q189.5 -11 150 -11Z"/></g>
  </g>
</svg>
